<?xml version="1.0" standalone="no"?>
<!DOCTYPE svg PUBLIC "-//W3C//DTD SVG 20010904//EN"
 "http://www.w3.org/TR/2001/REC-SVG-20010904/DTD/svg10.dtd">
<svg version="1.0" xmlns="http://www.w3.org/2000/svg"
 width="8533.000000pt" height="8533.000000pt" viewBox="0 0 8533.000000 8533.000000"
 preserveAspectRatio="xMidYMid meet">
<metadata>
Created by potrace 1.16, written by Peter Selinger 2001-2019
</metadata>
<g transform="translate(0.000000,8533.000000) scale(0.100000,-0.100000)"
fill="#000000" stroke="none">
<path d="M41455 85320 c-2249 -68 -4381 -292 -6535 -686 -3396 -621 -6748
-1671 -9881 -3097 -882 -401 -1862 -889 -2684 -1334 -4762 -2584 -8995 -6052
-12470 -10218 -2467 -2958 -4497 -6188 -6092 -9694 -2153 -4731 -3415 -9845
-3723 -15081 -51 -874 -53 -937 -57 -2335 -5 -1344 -1 -1589 33 -2300 220
-4623 1191 -9174 2874 -13470 650 -1661 1430 -3330 2292 -4905 1673 -3056
3724 -5908 6108 -8490 654 -708 1528 -1586 2240 -2251 3541 -3302 7610 -5979
12026 -7909 3208 -1403 6643 -2421 10059 -2980 171 -28 318 -52 328 -54 16 -4
17 711 17 14905 l0 14909 -5415 0 -5415 0 0 6170 0 6170 5415 0 5415 0 0 4758
c0 5206 3 5441 56 6277 193 3032 955 5723 2247 7935 1332 2280 3216 4050 5577
5239 340 171 520 256 815 383 1789 770 3814 1230 6000 1363 1273 77 2913 50
4805 -80 1866 -129 4151 -385 5840 -655 140 -22 274 -43 298 -47 l42 -6 0
-5253 0 -5254 -2717 0 c-2591 0 -3103 -5 -3468 -31 -2354 -166 -4061 -1042
-5087 -2609 -543 -828 -884 -1846 -1007 -3005 -12 -104 -26 -248 -33 -320 -9
-98 -12 -1191 -15 -4412 l-3 -4283 5916 0 5916 0 -6 -32 c-8 -45 -1886 -12294
-1886 -12302 0 -3 -2236 -6 -4970 -6 l-4970 0 0 -14909 c0 -14194 1 -14909 18
-14905 9 2 169 29 356 59 4839 798 9547 2457 13866 4888 5342 3006 10011 7167
13626 12142 1197 1646 2244 3327 3219 5165 303 571 784 1549 1063 2160 2258
4949 3535 10211 3797 15650 36 764 40 955 40 2085 0 1130 -4 1321 -40 2085
-250 5191 -1427 10231 -3498 14981 -455 1043 -1038 2238 -1584 3244 -1799
3316 -3999 6339 -6637 9120 -258 271 -1200 1213 -1471 1471 -3517 3336 -7442
5986 -11804 7971 -4541 2066 -9454 3317 -14466 3683 -479 35 -917 59 -1665 91
-310 13 -2332 20 -2705 9z"/>
</g>
</svg>
