<?xml version="1.0" standalone="no"?>
<!DOCTYPE svg PUBLIC "-//W3C//DTD SVG 20010904//EN"
 "http://www.w3.org/TR/2001/REC-SVG-20010904/DTD/svg10.dtd">
<svg version="1.0" xmlns="http://www.w3.org/2000/svg"
 width="4199.000000pt" height="4199.000000pt" viewBox="0 0 4199.000000 4199.000000"
 preserveAspectRatio="xMidYMid meet">
<metadata>
Created by potrace 1.16, written by Peter Selinger 2001-2019
</metadata>
<g transform="translate(0.000000,4199.000000) scale(0.100000,-0.100000)"
fill="#000000" stroke="none">
<path d="M16035 41979 c-1259 -13 -2074 -37 -3460 -99 -1418 -64 -2401 -180
-3400 -401 -1371 -304 -2682 -820 -3735 -1472 -1348 -834 -2623 -2109 -3457
-3457 -652 -1053 -1168 -2364 -1472 -3735 -221 -1000 -337 -1983 -401 -3405
-100 -2227 -110 -2967 -110 -8420 0 -5447 10 -6181 110 -8410 64 -1422 180
-2405 401 -3405 304 -1371 820 -2682 1472 -3735 834 -1348 2109 -2623 3457
-3457 1240 -767 2813 -1337 4455 -1612 1020 -171 1847 -237 3890 -311 1435
-51 1910 -55 7210 -55 5300 0 5775 4 7210 55 2043 74 2870 140 3890 311 1641
275 3215 845 4455 1612 1348 834 2623 2109 3457 3457 399 645 741 1371 1031
2190 461 1302 719 2708 817 4445 50 894 95 2162 117 3340 18 940 18 10221 0
11160 -23 1187 -67 2442 -117 3340 -98 1737 -356 3143 -817 4445 -290 819
-632 1545 -1031 2190 -834 1348 -2109 2623 -3457 3457 -1052 651 -2364 1168
-3735 1472 -1000 221 -1983 337 -3405 401 -1436 65 -2126 84 -3585 100 -1003
11 -8744 11 -9790 -1z m9450 -3789 c1604 -15 2281 -33 3765 -100 1769 -80
2876 -270 3995 -685 1042 -387 1775 -854 2540 -1620 721 -720 1159 -1384 1541
-2336 421 -1049 649 -2194 739 -3704 49 -831 95 -2166 117 -3385 18 -999 18
-9731 0 -10730 -28 -1561 -90 -3139 -153 -3880 -110 -1311 -346 -2355 -752
-3330 -365 -877 -803 -1526 -1492 -2215 -689 -689 -1338 -1127 -2215 -1492
-1091 -454 -2259 -695 -3825 -788 -831 -49 -2166 -95 -3385 -117 -999 -18
-9731 -18 -10730 0 -1561 28 -3139 90 -3880 153 -1311 110 -2355 346 -3330
752 -877 365 -1526 803 -2215 1492 -689 688 -1127 1339 -1491 2213 -434 1043
-669 2133 -773 3592 -28 381 -75 1440 -101 2230 -39 1220 -50 2664 -50 6755 0
5183 12 6090 110 8255 44 981 111 1647 231 2315 213 1187 611 2259 1154 3105
464 725 1310 1571 2035 2035 762 489 1707 861 2755 1085 756 162 1525 248
2665 300 1437 65 2234 87 3609 99 1235 11 7964 12 9136 1z"/>
<path d="M32010 34720 c-1090 -86 -2002 -857 -2259 -1912 -55 -224 -66 -327
-66 -608 0 -279 11 -378 65 -598 92 -375 267 -724 508 -1012 401 -480 946
-787 1575 -887 160 -25 575 -25 737 0 676 106 1253 450 1656 989 253 338 410
719 475 1149 28 188 31 504 5 689 -87 638 -397 1202 -886 1612 -358 300 -816
502 -1280 562 -147 19 -395 27 -530 16z"/>
<path d="M20460 31769 c-2138 -104 -4189 -840 -5905 -2119 -449 -334 -767
-611 -1186 -1029 -418 -419 -695 -737 -1029 -1186 -1570 -2108 -2310 -4698
-2095 -7335 165 -2010 888 -3925 2095 -5545 334 -449 611 -767 1029 -1186 419
-418 737 -695 1186 -1029 2320 -1728 5214 -2445 8100 -2004 1723 263 3370 954
4780 2004 449 334 767 611 1186 1029 418 419 695 737 1029 1186 1728 2320
2445 5214 2004 8100 -263 1723 -953 3370 -2004 4780 -334 449 -611 767 -1029
1186 -419 418 -737 695 -1186 1029 -1621 1208 -3524 1927 -5545 2094 -418 35
-1013 45 -1430 25z m870 -3789 c1733 -89 3325 -785 4559 -1995 1662 -1630
2401 -3956 1985 -6250 -390 -2147 -1791 -4012 -3752 -4994 -1455 -728 -3108
-925 -4702 -559 -2362 542 -4298 2305 -5061 4608 -406 1229 -467 2517 -177
3780 588 2561 2604 4601 5158 5219 659 160 1334 224 1990 191z"/>
</g>
</svg>
