<?xml version="1.0" standalone="no"?>
<!DOCTYPE svg PUBLIC "-//W3C//DTD SVG 20010904//EN"
 "http://www.w3.org/TR/2001/REC-SVG-20010904/DTD/svg10.dtd">
<svg version="1.0" xmlns="http://www.w3.org/2000/svg"
 width="4487.000000pt" height="4500.000000pt" viewBox="0 0 4487.000000 4500.000000"
 preserveAspectRatio="xMidYMid meet">
<metadata>
Created by potrace 1.16, written by Peter Selinger 2001-2019
</metadata>
<g transform="translate(0.000000,4500.000000) scale(0.100000,-0.100000)"
fill="#000000" stroke="none">
<path d="M3085 44989 c-641 -82 -1116 -246 -1560 -540 -205 -136 -357 -259
-520 -423 -527 -529 -860 -1232 -935 -1974 -14 -143 -14 -38582 0 -38737 53
-573 230 -1072 544 -1535 238 -352 576 -682 932 -913 448 -290 955 -463 1487
-506 179 -15 38515 -15 38677 -1 662 61 1256 300 1780 719 129 103 367 342
474 476 427 534 668 1144 715 1805 15 201 15 38394 0 38605 -23 351 -88 637
-216 960 -170 430 -426 812 -769 1145 -157 153 -286 257 -464 375 -396 264
-783 411 -1361 517 l-174 32 -19270 2 c-11136 1 -19300 -2 -19340 -7z m7373
-6193 c635 -85 1171 -288 1687 -637 772 -521 1349 -1350 1570 -2254 79 -323
100 -516 100 -910 -1 -352 -12 -478 -66 -750 -214 -1077 -895 -2022 -1854
-2575 -198 -114 -525 -258 -749 -329 -573 -183 -1183 -223 -1801 -120 -536 89
-1105 322 -1540 632 -729 518 -1246 1240 -1490 2082 -264 911 -181 1874 235
2730 444 913 1244 1623 2200 1953 301 103 596 164 950 196 107 9 650 -3 758
-18z m20012 -10026 c778 -23 1360 -84 1969 -206 1853 -369 3207 -1227 4114
-2609 919 -1401 1403 -3362 1497 -6065 33 -971 42 -3592 20 -5800 -5 -525 -10
-2342 -10 -4038 l0 -3082 -3292 2 -3293 3 -6 5775 c-4 4278 -8 5822 -17 5955
-43 654 -76 961 -143 1331 -210 1165 -659 1967 -1360 2430 -382 252 -818 400
-1389 471 -211 26 -883 26 -1120 0 -547 -61 -972 -178 -1367 -376 -611 -306
-1062 -764 -1387 -1411 -372 -738 -571 -1698 -616 -2965 -6 -174 -10 -2350
-10 -5748 l0 -5467 -3302 2 -3303 3 -3 10628 -2 10627 3170 0 3170 0 0 -1112
c0 -612 3 -1272 7 -1467 l6 -355 84 88 c86 90 159 189 325 443 219 336 630
805 989 1129 1049 949 2328 1553 3709 1753 434 63 896 81 1560 61z m-18339
-540 l1156 0 6 -4206 c4 -2313 4 -7096 0 -10630 l-6 -6424 -3301 2 -3301 3 -3
10535 c-2 5794 0 10577 3 10627 l7 93 966 3 c532 2 1496 2 2142 0 646 -1 1695
-3 2331 -3z"/>
</g>
</svg>
