<svg width="324" height="79" viewBox="0 0 324 79" fill="none" xmlns="http://www.w3.org/2000/svg" preserveAspectRatio="none">
<path d="M1.26671 57.4944L0.550281 47.5284L0.771768 47.4763C5.28846 55.0004 8.64561 57.4945 12.3904 57.4945C14.9238 57.4945 17.0731 55.7762 17.0731 52.7881C17.0732 44.9862 0 49.1911 0 37.7328C0 31.9755 4.62387 27.7703 12.4596 27.7703C15.1646 27.8049 17.8588 28.1196 20.4996 28.7095L20.9945 37.5102L20.7661 37.5693C16.5748 31.7533 13.0515 28.8736 9.91232 28.8736C7.32343 28.8736 5.50592 30.6442 5.50592 33.0235C5.50592 40.7737 22.5792 36.502 22.5792 48.2456C22.5792 54.5591 17.2354 58.4412 11.1785 58.4412C7.8517 58.4497 4.53195 58.1328 1.26619 57.4951L1.26671 57.4944Z" fill="black"/>
<path d="M26.5391 43.9315C26.5391 34.2995 33.3122 27.8295 42.401 27.8295C51.2681 27.8295 57.3803 34.0282 57.3803 42.3315C57.3803 52.0157 50.6071 58.4371 41.5184 58.4371C32.6513 58.4406 26.5391 52.2904 26.5391 43.9315ZM48.3435 44.8148C48.3435 34.6331 44.9309 28.7092 40.6911 28.7092C37.3863 28.7092 35.5688 33.3044 35.5688 41.4407C35.5688 51.6257 38.8736 57.5462 43.0584 57.5462C46.3776 57.5462 48.3469 52.9546 48.3469 44.8148H48.3435Z" fill="black"/>
<path d="M94.4373 57.4353V57.658H79.8456V57.4353C82.324 56.2213 82.9295 54.9487 82.9295 53.2293V38.9607C82.9295 35.1343 81.2751 32.6506 77.8072 32.6506C75.8793 32.6506 74.173 33.2593 73.0171 34.5882V53.2228C73.0171 54.9411 73.5674 56.2144 76.0455 57.4284V57.651H61.4503V57.4284C63.9284 56.2144 64.4787 54.9413 64.4787 53.2228V35.8302C64.4787 34.1674 63.8731 33.0056 61.0177 31.9029V31.6803L72.7955 27.8295H73.0274V33.7431C73.9206 31.9607 75.2899 30.4634 76.9819 29.4189C78.6739 28.3745 80.6219 27.8241 82.6075 27.8295C88.2248 27.8295 91.4193 31.4262 91.4193 37.4059V53.2228C91.4089 54.9617 91.9592 56.2213 94.4373 57.4353Z" fill="black"/>
<path d="M98.3451 57.4353C100.823 56.2213 101.373 54.9482 101.373 53.2297V35.8371C101.373 34.1743 100.768 33.0125 97.9125 31.9098V31.6872L109.69 27.8296H109.908V53.2229C109.908 54.9413 110.459 56.2145 112.937 57.4285V57.6511H98.3451V57.4353ZM85.1168 12.1761C85.1168 5.52865 90.3326 0.00125021 97.6249 0.00125021C99.2274 -0.0218887 100.818 0.276372 102.305 0.878587C103.791 1.4808 105.143 2.37488 106.282 3.50852C107.421 4.64217 108.323 5.99262 108.936 7.48088C109.549 8.96915 109.861 10.5653 109.853 12.1761C109.853 19.081 104.633 24.7441 97.6249 24.7441C90.3326 24.7266 85.1168 19.0636 85.1168 12.1761Z" fill="black"/>
<path d="M145.868 56.2213V56.4404L134.412 58.4406H133.862V52.0749C131.823 56.0607 128.906 58.4406 124.334 58.4406C119.834 58.4406 116.719 55.5081 116.719 51.1913C116.719 46.2622 121.291 44.436 129.608 41.9454L133.847 40.6723V38.3485C133.847 33.0333 130.93 30.3236 125.541 30.3236C123.118 30.3236 120.917 30.9879 119.979 31.9307C123.007 31.0993 125.818 32.703 125.818 35.8023C125.818 38.5155 123.89 39.9 121.685 39.9C119.318 39.9 117.556 38.2373 117.556 35.5274C117.556 30.7097 123.669 27.833 130.224 27.833C137.547 27.833 142.337 30.7097 142.337 38.5155V52.2416C142.341 53.8385 142.94 55.2229 145.868 56.2213ZM133.862 51.5705V41.3297L132.263 42.0497C126.923 44.6517 125.545 46.9753 125.545 49.5772C125.545 51.9565 126.867 53.4036 129.234 53.4036C130.951 53.3989 132.604 52.7445 133.862 51.5705Z" fill="black"/>
<path d="M169.59 27.8295C165.091 27.8295 161.823 30.0975 160.173 33.3081V27.8295H159.951L148.177 31.701V31.9237C151.039 33.0264 151.7 34.1882 151.7 35.8509V66.6116C153.714 67.3671 154.58 69.5266 154.299 71.4816H158.32C157.805 69.5789 158.424 67.3073 160.183 66.2812V57.8249C161.856 58.2462 163.576 58.4531 165.302 58.4406C174.612 58.4406 181.769 52.1792 181.769 42.2238C181.769 33.8577 176.858 27.8295 169.59 27.8295ZM165.458 57.6059C163.09 57.6059 160.173 55.5188 160.173 50.6315V34.0909C161.273 32.9847 163.146 32.2647 164.907 32.2647C169.258 32.2647 172.618 35.4753 172.618 43.9421C172.629 53.8936 168.773 57.6023 165.468 57.6023L165.458 57.6059Z" fill="black"/>
<path d="M184.41 57.4351C186.833 56.2211 187.438 54.948 187.438 53.2296V21.7384C187.438 20.0757 186.777 18.9138 183.912 17.8077V17.5851L195.752 13.7135H195.918V53.2227C195.918 54.941 196.524 56.2142 199.002 57.4282V57.6508H184.41V57.4351Z" fill="black"/>
<path d="M234.962 55.8873V56.1099L223.506 58.0927H223.011V52.3875C222.168 54.196 220.83 55.7258 219.153 56.7978C217.477 57.8698 215.531 58.4396 213.544 58.4406C207.983 58.4406 204.843 54.8438 204.843 48.8642V35.8516C204.843 34.1889 204.183 33.0271 201.32 31.9244V31.7018L213.098 27.8295H213.32V47.3092C213.32 51.1356 214.915 53.6193 218.276 53.6193C220.148 53.6193 221.855 52.955 223.011 51.6264V35.851C223.011 34.1883 222.35 33.0264 219.487 31.9238V31.7012L231.272 27.8295H231.49V51.9007C231.49 53.5079 232.041 54.8924 234.962 55.8873Z" fill="black"/>
<path d="M288.265 57.4353V57.6579H273.673V57.4353C276.096 56.2213 276.702 54.9482 276.702 53.2297V38.5642C276.702 35.0857 275.158 32.6506 272.185 32.6506C270.257 32.6506 268.606 33.3149 267.395 34.7377C267.504 35.4887 267.559 36.2467 267.558 37.0057V53.2225C267.558 54.9409 268.163 56.2141 270.589 57.4281V57.6507H256.053V57.4281C258.476 56.2141 259.082 54.941 259.082 53.2225V38.5642C259.082 35.0857 257.538 32.6506 254.582 32.6506C252.71 32.6506 251.17 33.2593 250.014 34.5325V53.2227C250.014 54.941 250.564 56.2142 252.931 57.4282V57.6508H238.426V57.4282C240.904 56.2142 241.455 54.9411 241.455 53.2227V35.83C241.455 34.1673 240.849 33.0054 237.994 31.9028V31.6802L249.761 27.8051H249.983V33.6942C250.828 31.9277 252.155 30.4386 253.809 29.3998C255.463 28.361 257.377 27.8153 259.327 27.8259C263.515 27.8259 266.249 30.2053 267.204 34.0247C268.921 30.3723 272.296 27.8295 276.92 27.8295C282.153 27.8295 285.189 31.4784 285.189 37.0125V53.2227C285.188 54.962 285.787 56.2212 288.265 57.4353Z" fill="black"/>
<path d="M324 42.2166C324 52.1791 316.787 58.4404 307.477 58.4404C304.286 58.4404 301.365 57.7761 298.942 56.4475L293.931 58.4404V21.7384C293.931 20.0757 293.27 18.9138 290.407 17.8077V17.5851L302.175 13.7135H302.397V33.304C304.048 30.0933 307.242 27.8253 311.741 27.8253C319.106 27.8295 324 33.8577 324 42.2166ZM314.859 43.9315C314.859 35.4649 311.499 32.2541 307.148 32.2541C305.387 32.2541 303.514 32.9742 302.414 34.0803V50.6277C302.414 55.4977 305.276 57.6021 307.699 57.6021C311.003 57.6021 314.859 53.894 314.859 43.9315Z" fill="black"/>
<path d="M160.183 69.4744V66.4655H151.7V69.4744C151.7 71.1894 151.094 72.4625 148.616 73.68V73.8991H164.146V73.68C160.937 72.4625 160.183 71.1894 160.183 69.4744Z" fill="black"/>
<path d="M160.179 61.1363H151.7V69.4848H160.179V61.1363Z" fill="black"/>
<path d="M26.9346 71.2515C26.9346 70.4375 27.0853 69.7228 27.3867 69.1076C27.6975 68.4924 28.1165 68.0191 28.6439 67.6878C29.1713 67.3565 29.7599 67.1909 30.4097 67.1909C30.9277 67.1909 31.3986 67.2997 31.8224 67.5174C32.2556 67.7351 32.5946 68.0286 32.8395 68.3977V64.7205H35.2551V75.2269H32.8395V74.0911C32.6134 74.4697 32.2885 74.7725 31.8647 74.9997C31.4504 75.2269 30.9654 75.3405 30.4097 75.3405C29.7599 75.3405 29.1713 75.1748 28.6439 74.8435C28.1165 74.5028 27.6975 74.0248 27.3867 73.4096C27.0853 72.7849 26.9346 72.0655 26.9346 71.2515ZM32.8395 71.2657C32.8395 70.6599 32.6699 70.1819 32.3309 69.8317C32.0013 69.4815 31.5963 69.3064 31.116 69.3064C30.6357 69.3064 30.2261 69.4815 29.887 69.8317C29.5574 70.1724 29.3926 70.6457 29.3926 71.2515C29.3926 71.8573 29.5574 72.34 29.887 72.6997C30.2261 73.0499 30.6357 73.225 31.116 73.225C31.5963 73.225 32.0013 73.0499 32.3309 72.6997C32.6699 72.3494 32.8395 71.8715 32.8395 71.2657Z" fill="black"/>
<path d="M36.5224 71.2515C36.5224 70.4375 36.673 69.7228 36.9744 69.1076C37.2852 68.4924 37.7043 68.0191 38.2317 67.6878C38.759 67.3565 39.3476 67.1909 39.9975 67.1909C40.5531 67.1909 41.0381 67.3045 41.4525 67.5316C41.8763 67.7588 42.2012 68.057 42.4272 68.4261V67.3045H44.8428V75.2269H42.4272V74.1052C42.1918 74.4744 41.8621 74.7725 41.4384 74.9997C41.024 75.2269 40.539 75.3405 39.9833 75.3405C39.3429 75.3405 38.759 75.1748 38.2317 74.8435C37.7043 74.5028 37.2852 74.0248 36.9744 73.4096C36.673 72.7849 36.5224 72.0655 36.5224 71.2515ZM42.4272 71.2657C42.4272 70.6599 42.2577 70.1819 41.9187 69.8317C41.589 69.4815 41.1841 69.3064 40.7038 69.3064C40.2235 69.3064 39.8138 69.4815 39.4748 69.8317C39.1452 70.1724 38.9804 70.6457 38.9804 71.2515C38.9804 71.8573 39.1452 72.34 39.4748 72.6997C39.8138 73.0499 40.2235 73.225 40.7038 73.225C41.1841 73.225 41.589 73.0499 41.9187 72.6997C42.2577 72.3494 42.4272 71.8715 42.4272 71.2657Z" fill="black"/>
<path d="M51.3934 67.2193C52.3163 67.2193 53.0509 67.5222 53.5971 68.1279C54.1527 68.7243 54.4306 69.5477 54.4306 70.5984V75.2269H52.0291V70.9249C52.0291 70.3949 51.8925 69.9831 51.6194 69.6897C51.3463 69.3963 50.979 69.2496 50.5175 69.2496C50.0561 69.2496 49.6888 69.3963 49.4157 69.6897C49.1426 69.9831 49.006 70.3949 49.006 70.9249V75.2269H46.5904V67.3045H49.006V68.3551C49.2509 68.0049 49.5805 67.7304 49.9949 67.5316C50.4092 67.3234 50.8754 67.2193 51.3934 67.2193Z" fill="black"/>
<path d="M55.6289 71.2657C55.6289 70.4422 55.7937 69.7228 56.1233 69.1076C56.4623 68.4924 56.9285 68.0191 57.5218 67.6878C58.1245 67.3565 58.812 67.1909 59.5843 67.1909C60.5731 67.1909 61.3971 67.4512 62.0564 67.9718C62.725 68.4924 63.1629 69.2259 63.3701 70.1724H60.7991C60.5825 69.5667 60.1634 69.2638 59.5419 69.2638C59.0993 69.2638 58.7461 69.4389 58.4824 69.7891C58.2187 70.1298 58.0869 70.622 58.0869 71.2657C58.0869 71.9093 58.2187 72.4062 58.4824 72.7565C58.7461 73.0972 59.0993 73.2676 59.5419 73.2676C60.1634 73.2676 60.5825 72.9647 60.7991 72.3589H63.3701C63.1629 73.2865 62.725 74.0153 62.0564 74.5454C61.3877 75.0754 60.5637 75.3405 59.5843 75.3405C58.812 75.3405 58.1245 75.1748 57.5218 74.8435C56.9285 74.5123 56.4623 74.039 56.1233 73.4238C55.7937 72.8085 55.6289 72.0891 55.6289 71.2657Z" fill="black"/>
<path d="M72.0927 71.1379C72.0927 71.3651 72.0786 71.6017 72.0504 71.8478H66.5834C66.6211 72.34 66.7765 72.7186 67.0496 72.9836C67.3321 73.2392 67.6759 73.367 68.0808 73.367C68.6836 73.367 69.1027 73.1114 69.3381 72.6003H71.9091C71.7773 73.1209 71.5371 73.5894 71.1886 74.0059C70.8496 74.4223 70.4211 74.7489 69.9032 74.9855C69.3852 75.2221 68.806 75.3405 68.1656 75.3405C67.3934 75.3405 66.7059 75.1748 66.1031 74.8435C65.5004 74.5123 65.0295 74.039 64.6905 73.4238C64.3515 72.8085 64.182 72.0891 64.182 71.2657C64.182 70.4422 64.3468 69.7228 64.6764 69.1076C65.0154 68.4924 65.4863 68.0191 66.089 67.6878C66.6917 67.3565 67.3839 67.1909 68.1656 67.1909C68.9284 67.1909 69.6065 67.3518 70.1998 67.6736C70.7931 67.9954 71.2546 68.4545 71.5842 69.0508C71.9232 69.6471 72.0927 70.3428 72.0927 71.1379ZM69.6206 70.499C69.6206 70.0825 69.4794 69.7512 69.1968 69.5051C68.9143 69.259 68.5611 69.136 68.1373 69.136C67.7324 69.136 67.3886 69.2543 67.1061 69.4909C66.833 69.7276 66.6635 70.0636 66.5976 70.499H69.6206Z" fill="black"/>
<path d="M184.307 71.2622C184.307 70.4387 184.472 69.7193 184.802 69.1041C185.141 68.4888 185.607 68.0156 186.2 67.6843C186.803 67.353 187.49 67.1874 188.263 67.1874C189.251 67.1874 190.075 67.4477 190.735 67.9683C191.403 68.4888 191.841 69.2224 192.048 70.1689H189.477C189.261 69.5631 188.842 69.2603 188.22 69.2603C187.778 69.2603 187.424 69.4354 187.161 69.7856C186.897 70.1263 186.765 70.6185 186.765 71.2622C186.765 71.9058 186.897 72.4027 187.161 72.7529C187.424 73.0937 187.778 73.2641 188.22 73.2641C188.842 73.2641 189.261 72.9612 189.477 72.3554H192.048C191.841 73.283 191.403 74.0118 190.735 74.5419C190.066 75.0719 189.242 75.337 188.263 75.337C187.49 75.337 186.803 75.1713 186.2 74.84C185.607 74.5087 185.141 74.0355 184.802 73.4202C184.472 72.805 184.307 72.0856 184.307 71.2622Z" fill="black"/>
<path d="M196.929 75.337C196.156 75.337 195.46 75.1713 194.838 74.84C194.226 74.5087 193.741 74.0355 193.383 73.4202C193.035 72.805 192.86 72.0856 192.86 71.2622C192.86 70.4482 193.039 69.7335 193.397 69.1183C193.755 68.4936 194.245 68.0156 194.866 67.6843C195.488 67.353 196.185 67.1874 196.957 67.1874C197.729 67.1874 198.426 67.353 199.048 67.6843C199.669 68.0156 200.159 68.4936 200.517 69.1183C200.875 69.7335 201.054 70.4482 201.054 71.2622C201.054 72.0762 200.87 72.7955 200.503 73.4202C200.145 74.0355 199.65 74.5087 199.019 74.84C198.398 75.1713 197.701 75.337 196.929 75.337ZM196.929 73.2357C197.39 73.2357 197.781 73.0653 198.101 72.7245C198.431 72.3838 198.596 71.8963 198.596 71.2622C198.596 70.628 198.436 70.1405 198.115 69.7998C197.805 69.459 197.418 69.2887 196.957 69.2887C196.486 69.2887 196.095 69.459 195.784 69.7998C195.474 70.1311 195.318 70.6185 195.318 71.2622C195.318 71.8963 195.469 72.3838 195.77 72.7245C196.081 73.0653 196.467 73.2357 196.929 73.2357Z" fill="black"/>
<path d="M212.393 67.2158C213.373 67.2158 214.15 67.5139 214.724 68.1102C215.308 68.7065 215.6 69.5348 215.6 70.5949V75.2234H213.198V70.9214C213.198 70.4103 213.062 70.0175 212.789 69.743C212.525 69.459 212.158 69.3171 211.687 69.3171C211.216 69.3171 210.844 69.459 210.571 69.743C210.307 70.0175 210.175 70.4103 210.175 70.9214V75.2234H207.774V70.9214C207.774 70.4103 207.637 70.0175 207.364 69.743C207.1 69.459 206.733 69.3171 206.262 69.3171C205.791 69.3171 205.419 69.459 205.146 69.743C204.883 70.0175 204.751 70.4103 204.751 70.9214V75.2234H202.335V67.301H204.751V68.2948C204.996 67.9635 205.316 67.7032 205.711 67.5139C206.107 67.3152 206.554 67.2158 207.053 67.2158C207.647 67.2158 208.174 67.3436 208.635 67.5991C209.106 67.8547 209.474 68.2191 209.737 68.6923C210.01 68.2569 210.382 67.902 210.853 67.6275C211.324 67.353 211.837 67.2158 212.393 67.2158Z" fill="black"/>
<path d="M219.705 68.4226C219.94 68.0534 220.265 67.7553 220.68 67.5281C221.094 67.301 221.579 67.1874 222.135 67.1874C222.784 67.1874 223.373 67.353 223.9 67.6843C224.428 68.0156 224.842 68.4888 225.144 69.1041C225.454 69.7193 225.61 70.434 225.61 71.248C225.61 72.062 225.454 72.7813 225.144 73.406C224.842 74.0213 224.428 74.4993 223.9 74.84C223.373 75.1713 222.784 75.337 222.135 75.337C221.588 75.337 221.103 75.2234 220.68 74.9962C220.265 74.769 219.94 74.4756 219.705 74.1159V79H217.289V67.301H219.705V68.4226ZM223.152 71.248C223.152 70.6422 222.982 70.1689 222.643 69.8282C222.314 69.478 221.904 69.3029 221.414 69.3029C220.934 69.3029 220.524 69.478 220.185 69.8282C219.856 70.1784 219.691 70.6564 219.691 71.2622C219.691 71.8679 219.856 72.3459 220.185 72.6962C220.524 73.0464 220.934 73.2215 221.414 73.2215C221.894 73.2215 222.304 73.0464 222.643 72.6962C222.982 72.3365 223.152 71.8537 223.152 71.248Z" fill="black"/>
<path d="M226.397 71.248C226.397 70.434 226.547 69.7193 226.849 69.1041C227.16 68.4888 227.579 68.0156 228.106 67.6843C228.633 67.353 229.222 67.1874 229.872 67.1874C230.427 67.1874 230.912 67.301 231.327 67.5281C231.751 67.7553 232.076 68.0534 232.302 68.4226V67.301H234.717V75.2234H232.302V74.1017C232.066 74.4709 231.736 74.769 231.313 74.9962C230.898 75.2234 230.413 75.337 229.858 75.337C229.217 75.337 228.633 75.1713 228.106 74.84C227.579 74.4993 227.16 74.0213 226.849 73.406C226.547 72.7813 226.397 72.062 226.397 71.248ZM232.302 71.2622C232.302 70.6564 232.132 70.1784 231.793 69.8282C231.463 69.478 231.058 69.3029 230.578 69.3029C230.098 69.3029 229.688 69.478 229.349 69.8282C229.02 70.1689 228.855 70.6422 228.855 71.248C228.855 71.8537 229.02 72.3365 229.349 72.6962C229.688 73.0464 230.098 73.2215 230.578 73.2215C231.058 73.2215 231.463 73.0464 231.793 72.6962C232.132 72.3459 232.302 71.8679 232.302 71.2622Z" fill="black"/>
<path d="M241.268 67.2158C242.191 67.2158 242.925 67.5187 243.471 68.1244C244.027 68.7207 244.305 69.5442 244.305 70.5949V75.2234H241.903V70.9214C241.903 70.3914 241.767 69.9796 241.494 69.6862C241.221 69.3928 240.853 69.2461 240.392 69.2461C239.93 69.2461 239.563 69.3928 239.29 69.6862C239.017 69.9796 238.88 70.3914 238.88 70.9214V75.2234H236.465V67.301H238.88V68.3516C239.125 68.0014 239.455 67.7269 239.869 67.5281C240.284 67.3199 240.75 67.2158 241.268 67.2158Z" fill="black"/>
<path d="M254.036 67.301L249.091 78.9858H246.492L248.3 74.9536L245.094 67.301H247.792L249.614 72.256L251.422 67.301H254.036Z" fill="black"/>
</svg>
