<svg width="146" height="102" viewBox="0 0 146 102" fill="none" xmlns="http://www.w3.org/2000/svg">
<path d="M0.721844 41.9947L0.200169 35.1137L0.364168 35.0736C3.28864 40.3549 5.33268 41.8752 7.90118 41.8752C9.78787 41.8752 11.6746 40.6349 11.6746 38.1116C11.6712 32.4333 0 35.0343 0 27.4727C0 23.5129 3.08847 20.6721 8.7034 20.6721C10.5482 20.6997 12.3871 20.8875 14.1993 21.2333L14.4799 27.1534L14.3159 27.1935C11.6285 23.1934 9.46234 21.513 7.21705 21.513C5.33036 21.513 3.88822 22.8334 3.88822 24.5534C3.88822 30.4744 15.5594 27.7541 15.5594 35.3145C15.5594 39.7948 11.8294 42.6354 7.33746 42.6354C5.11624 42.6449 2.89975 42.4303 0.721844 41.9948V41.9947Z" fill="black"/>
<path d="M18.9301 32.2361C18.9301 25.3953 23.7034 20.6744 30.3207 20.6744C36.5779 20.6744 40.9099 25.1555 40.9099 31.0758C40.9099 37.9568 36.1366 42.6376 29.518 42.6376C23.2627 42.6351 18.9301 38.1941 18.9301 32.2361ZM35.4551 32.8359C35.4551 26.3952 32.5675 21.5147 28.7966 21.5147C26.0298 21.5147 24.385 25.3151 24.385 30.5147C24.385 36.9562 27.1526 41.7966 30.9234 41.7966C33.6509 41.7949 35.4555 38.0348 35.4555 32.8334L35.4551 32.8359Z" fill="black"/>
<path d="M67.8215 41.875V42.0747H57.9135V41.875C59.7181 40.9145 60.3204 40.0341 60.3204 38.9942V29.1933C60.3204 26.0328 58.957 23.8326 55.8687 23.8326C54.3045 23.8326 52.8608 24.2728 51.8173 25.0729V38.9945C51.8173 40.0344 52.4597 40.9147 54.2643 41.8753V42.075H44.3183V41.8753C46.1631 40.9149 46.7651 40.0344 46.7651 38.9945V26.6726C46.7651 25.3922 46.1229 24.5518 43.8366 23.8318V23.6681L51.778 20.6678H51.8182V24.4683C52.901 22.6683 55.5916 20.6678 58.8374 20.6678C62.8882 20.6679 65.4148 23.3083 65.4148 27.9895V38.9948C65.4148 40.0342 66.0169 40.9145 67.8215 41.875Z" fill="black"/>
<path d="M70.9902 41.875C72.835 40.9145 73.4364 40.0341 73.4364 38.9942V26.6726C73.4364 25.3922 72.795 24.5518 70.5087 23.8318V23.6681L78.4501 20.6678H78.4903V38.9944C78.4903 40.0342 79.1317 40.9146 80.9363 41.8752V42.0748H70.9902V41.875Z" fill="black"/>
<path d="M104.48 40.9548V41.1544L96.5787 42.6354H96.4967V38.1942C94.893 41.075 92.6461 42.6352 89.5186 42.6352C86.2692 42.6352 83.9403 40.5145 83.9403 37.3934C83.9403 33.7117 87.7136 32.3935 93.4464 30.7131L96.4945 29.8729V28.2326C96.4945 24.3528 94.2484 22.5129 90.4381 22.5129C88.5514 22.5129 87.0289 23.0325 86.3474 23.6723C88.1522 23.0725 89.9968 24.1926 89.9968 26.1931C89.9968 27.953 88.7139 28.8735 87.23 28.8735C85.7058 28.8735 84.5426 27.7535 84.5426 26.0328C84.5426 22.9122 88.7139 20.6721 93.3658 20.6721C98.3393 20.6721 101.548 22.7929 101.548 27.9539V38.3545C101.553 39.3543 102.153 40.3549 104.48 40.9548ZM96.4982 37.8342V30.4706L94.8945 31.1505C90.3214 33.2302 89.2386 34.8322 89.2386 36.791C89.2386 38.5092 90.3206 39.5916 92.2868 39.5916C93.7708 39.595 95.1749 39.0745 96.4982 37.8342Z" fill="black"/>
<path d="M43.2026 65.1932C43.2026 72.1944 37.9528 76.9145 31.4913 76.9145C30.015 76.9289 28.5438 76.7406 27.1191 76.3548V83.2758C27.1191 84.355 27.9213 85.196 30.2878 86.1557V86.3554H19.619V86.154C21.4638 85.1945 22.066 84.3542 22.066 83.2741V60.9541C22.066 59.6745 21.4238 58.8343 19.1375 58.1141V57.9506L27.0789 54.9502H27.1191V58.5116C28.443 56.5112 30.8925 54.9502 34.2558 54.9502C39.8337 54.9519 43.2026 59.4724 43.2026 65.1932ZM37.7065 66.3132C37.7065 60.0328 34.8988 57.7927 31.209 57.7927C29.8046 57.7927 28.1607 58.2722 27.1174 59.1526V70.7543C27.1174 74.6341 29.6849 76.0731 31.6897 76.0731C34.1783 76.0747 37.7082 73.8747 37.7082 66.3141L37.7065 66.3132Z" fill="black"/>
<path d="M45.4888 76.1542C47.3336 75.1945 47.9359 74.3142 47.9359 73.2742V50.592C47.9359 49.3115 47.2935 48.4311 45.0074 47.7512V47.5517L52.9486 44.5906H52.9914V73.2742C52.9914 74.3142 53.6336 75.1945 55.4382 76.1542V76.3547H45.4888V76.1542Z" fill="black"/>
<path d="M81.7067 75.1945V75.394L73.8457 76.8741H73.7252V73.0346C72.6826 74.9164 69.9952 76.9145 66.7067 76.9145C62.6955 76.9145 60.1684 74.3142 60.1684 69.5943V60.9541C60.1684 59.6745 59.5269 58.8343 57.2809 58.1141V57.9506L65.1821 54.9502H65.2641V68.3939C65.2641 71.5544 66.6282 73.7546 69.6363 73.7546C71.2408 73.7546 72.6846 73.3146 73.7272 72.4742V60.9541C73.7272 59.6745 73.0857 58.8343 70.7996 58.1141V57.9506L78.7408 54.9502H78.781V72.5943C78.7792 73.5942 79.4205 74.5547 81.7067 75.1945Z" fill="black"/>
<path d="M120.371 76.1542V76.3547H110.424V76.1542C112.269 75.1947 112.87 74.3142 112.87 73.2743V63.1535C112.87 60.3128 111.507 58.1121 108.86 58.1121C107.175 58.1121 105.812 58.6317 104.649 59.6324C104.85 60.4026 104.945 61.1968 104.929 61.9927V73.2739C104.929 74.3137 105.532 75.1942 107.336 76.1538V76.3542H97.429V76.1538C99.2338 75.1942 99.8358 74.3137 99.8358 73.2739V63.1535C99.8358 60.3128 98.5118 58.1121 95.8649 58.1121C94.4602 58.0866 93.0837 58.5069 91.934 59.3123V73.2737C91.934 74.3136 92.5359 75.1941 94.3809 76.1536V76.354H84.4341V76.1536C86.2789 75.1941 86.881 74.3136 86.881 73.2737V60.9541C86.881 59.6745 86.2386 58.8343 83.9525 58.1141V57.9506L91.8946 54.9502H91.9342V58.7507C92.6661 57.5943 93.6779 56.6402 94.8764 55.9761C96.075 55.3119 97.4217 54.9592 98.7928 54.9502C101.641 54.9502 103.686 56.4704 104.528 59.1508C105.731 56.8706 108.259 54.9502 111.708 54.9502C115.518 54.9502 117.924 57.5904 117.924 61.9915V73.2742C117.924 74.3142 118.527 75.1945 120.371 76.1542Z" fill="black"/>
<path d="M146 65.193C146 72.1941 140.75 76.9143 134.288 76.9143C131.962 76.9143 129.916 76.5142 128.152 75.5946L124.863 76.9544V50.5912C124.863 49.3107 124.221 48.4304 121.975 47.7505V47.551L129.876 44.5906H129.958V58.5122C131.282 56.5118 133.688 54.9509 137.018 54.9509C142.631 54.9519 146 59.4724 146 65.193ZM140.504 66.3131C140.504 60.0328 137.696 57.7927 134.046 57.7927C132.602 57.7927 130.998 58.272 129.955 59.1124V70.7543C129.955 74.6341 132.482 76.0724 134.487 76.0724C137.016 76.0739 140.506 73.8739 140.506 66.3134L140.504 66.3131Z" fill="black"/>
<path d="M69.8049 17.725C74.7123 17.725 78.6904 13.7571 78.6904 8.86249C78.6904 3.96787 74.7123 0 69.8049 0C64.8976 0 60.9195 3.96787 60.9195 8.86249C60.9195 13.7571 64.8976 17.725 69.8049 17.725Z" fill="black"/>
<path d="M42.9327 96.6275C42.9327 95.5579 43.1322 94.619 43.5312 93.8106C43.9427 93.0022 44.4975 92.3804 45.1958 91.9452C45.894 91.5099 46.6733 91.2922 47.5337 91.2922C48.2194 91.2922 48.8429 91.4353 49.404 91.7213C49.9775 92.0073 50.4264 92.3929 50.7506 92.8779V88.0463H53.9488V101.851H50.7506V100.358C50.4513 100.856 50.0212 101.254 49.4601 101.552C48.9115 101.851 48.2693 102 47.5337 102C46.6733 102 45.894 101.782 45.1958 101.347C44.4975 100.899 43.9427 100.271 43.5312 99.463C43.1322 98.6422 42.9327 97.697 42.9327 96.6275ZM50.7506 96.6461C50.7506 95.8502 50.5261 95.2221 50.0773 94.762C49.6409 94.3018 49.1047 94.0718 48.4688 94.0718C47.8329 94.0718 47.2905 94.3018 46.8417 94.762C46.4052 95.2097 46.187 95.8315 46.187 96.6275C46.187 97.4234 46.4052 98.0576 46.8417 98.5302C47.2905 98.9904 47.8329 99.2205 48.4688 99.2205C49.1047 99.2205 49.6409 98.9904 50.0773 98.5302C50.5261 98.0701 50.7506 97.4421 50.7506 96.6461Z" fill="black"/>
<path d="M55.6267 96.6275C55.6267 95.5579 55.8262 94.619 56.2252 93.8106C56.6366 93.0022 57.1915 92.3804 57.8897 91.9452C58.588 91.5099 59.3673 91.2922 60.2276 91.2922C60.9633 91.2922 61.6054 91.4415 62.154 91.7399C62.7151 92.0384 63.1453 92.4302 63.4445 92.9152V91.4415H66.6428V101.851H63.4445V100.377C63.1328 100.862 62.6964 101.254 62.1353 101.552C61.5867 101.851 60.9446 102 60.2089 102C59.361 102 58.588 101.782 57.8897 101.347C57.1915 100.899 56.6366 100.271 56.2252 99.463C55.8262 98.6422 55.6267 97.697 55.6267 96.6275ZM63.4445 96.6461C63.4445 95.8502 63.2201 95.2221 62.7712 94.762C62.3348 94.3018 61.7987 94.0718 61.1628 94.0718C60.5269 94.0718 59.9845 94.3018 59.5356 94.762C59.0992 95.2097 58.881 95.8315 58.881 96.6275C58.881 97.4234 59.0992 98.0576 59.5356 98.5302C59.9845 98.9904 60.5269 99.2205 61.1628 99.2205C61.7987 99.2205 62.3348 98.9904 62.7712 98.5302C63.2201 98.0701 63.4445 97.4421 63.4445 96.6461Z" fill="black"/>
<path d="M75.3155 91.3295C76.5375 91.3295 77.51 91.7275 78.2332 92.5234C78.9689 93.3069 79.3367 94.3889 79.3367 95.7693V101.851H76.1572V96.1984C76.1572 95.502 75.9764 94.961 75.6148 94.5755C75.2532 94.1899 74.7669 93.9972 74.156 93.9972C73.545 93.9972 73.0587 94.1899 72.6971 94.5755C72.3355 94.961 72.1547 95.502 72.1547 96.1984V101.851H68.9565V91.4415H72.1547V92.8219C72.4789 92.3618 72.9153 92.0011 73.4639 91.7399C74.0126 91.4663 74.6298 91.3295 75.3155 91.3295Z" fill="black"/>
<path d="M80.9232 96.6461C80.9232 95.5641 81.1414 94.619 81.5778 93.8106C82.0267 93.0022 82.6439 92.3804 83.4294 91.9452C84.2274 91.5099 85.1377 91.2922 86.1601 91.2922C87.4693 91.2922 88.5603 91.6342 89.4331 92.3182C90.3184 93.0022 90.8982 93.9661 91.1725 95.2097H87.7685C87.4818 94.4138 86.9269 94.0158 86.104 94.0158C85.518 94.0158 85.0504 94.2459 84.7013 94.706C84.3521 95.1537 84.1776 95.8004 84.1776 96.6461C84.1776 97.4918 84.3521 98.1447 84.7013 98.6049C85.0504 99.0526 85.518 99.2764 86.104 99.2764C86.9269 99.2764 87.4818 98.8784 87.7685 98.0825H91.1725C90.8982 99.3013 90.3184 100.259 89.4331 100.955C88.5478 101.652 87.4568 102 86.1601 102C85.1377 102 84.2274 101.782 83.4294 101.347C82.6439 100.912 82.0267 100.29 81.5778 99.4816C81.1414 98.6733 80.9232 97.7281 80.9232 96.6461Z" fill="black"/>
<path d="M102.721 96.4782C102.721 96.7767 102.702 97.0876 102.665 97.411H95.4268C95.4767 98.0577 95.6825 98.5551 96.0441 98.9033C96.4181 99.2391 96.8732 99.407 97.4094 99.407C98.2074 99.407 98.7622 99.0712 99.0739 98.3997H102.478C102.303 99.0837 101.985 99.6993 101.524 100.246C101.075 100.794 100.508 101.223 99.8221 101.534C99.1363 101.845 98.3695 102 97.5216 102C96.4992 102 95.5889 101.782 94.7909 101.347C93.993 100.912 93.3695 100.29 92.9206 99.4816C92.4718 98.6733 92.2473 97.7281 92.2473 96.6461C92.2473 95.5641 92.4655 94.619 92.9019 93.8106C93.3508 93.0022 93.9743 92.3804 94.7722 91.9452C95.5702 91.5099 96.4867 91.2922 97.5216 91.2922C98.5316 91.2922 99.4293 91.5037 100.215 91.9265C101 92.3493 101.611 92.9525 102.048 93.736C102.497 94.5195 102.721 95.4336 102.721 96.4782ZM99.448 95.6388C99.448 95.0916 99.261 94.6563 98.8869 94.3329C98.5129 94.0096 98.0453 93.8479 97.4842 93.8479C96.948 93.8479 96.4929 94.0034 96.1189 94.3143C95.7573 94.6252 95.5328 95.0667 95.4455 95.6388H99.448Z" fill="black"/>
</svg>
