<svg width="1417" height="1184" viewBox="0 0 1417 1184" fill="none" xmlns="http://www.w3.org/2000/svg">
<path d="M1240.8 0H432.8C386.117 0 341.352 18.5413 308.347 51.5467C275.341 84.5573 256.8 129.323 256.8 176V496H176.8C130.117 496 85.352 514.541 52.3467 547.547C19.3413 580.557 0.799988 625.323 0.799988 672V1008C0.799988 1054.68 19.3413 1099.44 52.3467 1132.45C85.352 1165.46 130.117 1184 176.8 1184H1208.8C1263.96 1184 1316.87 1162.08 1355.88 1123.08C1394.89 1084.07 1416.8 1031.17 1416.8 975.999V175.999C1416.8 129.321 1398.25 84.556 1365.25 51.5453C1332.24 18.54 1287.48 -0.00134277 1240.8 -0.00134277L1240.8 0ZM256.8 1008C256.8 1036.58 241.549 1062.99 216.8 1077.28C192.045 1091.57 161.549 1091.57 136.8 1077.28C112.045 1062.99 96.8 1036.58 96.8 1008V672C96.8 650.781 105.227 630.432 120.227 615.432C135.232 600.427 155.581 592 176.8 592H256.8V1008ZM1320.8 976C1320.8 1005.7 1309 1034.19 1287.99 1055.2C1266.99 1076.2 1238.5 1088 1208.8 1088H332C344.687 1063.25 351.271 1035.82 351.197 1008V176C351.197 154.781 359.63 134.432 374.629 119.432C389.635 104.427 409.984 96 431.197 96H1240.8C1262.01 96 1282.36 104.427 1297.37 119.432C1312.37 134.432 1320.8 154.781 1320.8 176L1320.8 976Z" fill="black"/>
<path d="M508 536H764C776.729 536 788.937 530.943 797.943 521.943C806.943 512.937 812 500.729 812 488V248C812 235.271 806.943 223.063 797.943 214.057C788.937 205.057 776.729 200 764 200H508C495.271 200 483.063 205.057 474.057 214.057C465.057 223.063 460 235.271 460 248V488C460 500.729 465.057 512.937 474.057 521.943C483.063 530.943 495.271 536 508 536ZM556 296H716V440H556V296Z" fill="black"/>
<path d="M1164 248H940C922.849 248 907.005 257.151 898.432 272C889.854 286.849 889.854 305.151 898.432 320C907.005 334.849 922.848 344 940 344H1164C1181.15 344 1196.99 334.849 1205.57 320C1214.15 305.151 1214.15 286.849 1205.57 272C1197 257.151 1181.15 248 1164 248Z" fill="black"/>
<path d="M1164 440H940C922.849 440 907.005 449.151 898.432 464C889.854 478.849 889.854 497.151 898.432 512C907.005 526.849 922.848 536 940 536H1164C1181.15 536 1196.99 526.849 1205.57 512C1214.15 497.151 1214.15 478.849 1205.57 464C1197 449.151 1181.15 440 1164 440Z" fill="black"/>
<path d="M1164 648H508C490.849 648 475.005 657.151 466.432 672C457.854 686.849 457.854 705.151 466.432 720C475.005 734.849 490.848 744 508 744H1164C1181.15 744 1196.99 734.849 1205.57 720C1214.15 705.151 1214.15 686.849 1205.57 672C1197 657.151 1181.15 648 1164 648Z" fill="black"/>
<path d="M1164 840H508C490.849 840 475.005 849.151 466.432 864C457.854 878.849 457.854 897.151 466.432 912C475.005 926.849 490.848 936 508 936H1164C1181.15 936 1196.99 926.849 1205.57 912C1214.15 897.151 1214.15 878.849 1205.57 864C1197 849.151 1181.15 840 1164 840Z" fill="black"/>
</svg>
